<svg width="1486" height="1373" viewBox="0 0 1486 1373" fill="none" xmlns="http://www.w3.org/2000/svg">
<path d="M1213.68 591.453C1213.68 850.423 996.427 1060.39 728.392 1060.39C460.356 1060.39 243.1 850.423 243.1 591.453C243.1 332.484 460.356 122.518 728.392 122.518C996.427 122.518 1213.68 332.484 1213.68 591.453Z" fill="black" stroke="black"/>
<path d="M1163.18 467.717C1162.36 468.672 1120.11 344.165 1011.1 257.102C902.082 170.038 767.586 153.387 768.403 152.432C769.22 151.477 904.313 167.43 1013.33 254.493C1122.34 341.557 1163.99 466.762 1163.18 467.717Z" fill="white"/>
<path d="M1156.65 471.914C1155.83 472.87 1113.58 348.363 1004.57 261.299C895.552 174.235 761.056 157.584 761.872 156.629C762.689 155.674 897.783 171.627 1006.8 258.69C1115.81 345.754 1157.46 470.959 1156.65 471.914Z" fill="white"/>
<path d="M1141.77 453.206C1141.12 453.965 1097.25 346.849 997.951 267.544C898.652 188.239 781.526 166.776 782.175 166.017C782.824 165.259 900.423 186.168 999.722 265.473C1099.02 344.778 1142.42 452.448 1141.77 453.206Z" fill="white"/>
<path d="M1134.25 457.522C1133.6 458.281 1089.73 351.165 990.427 271.86C891.128 192.555 774.003 171.092 774.652 170.333C775.3 169.575 892.9 190.484 992.199 269.789C1091.5 349.094 1134.89 456.764 1134.25 457.522Z" fill="white"/>
<path d="M1127.63 459.142C1127.05 459.797 1083.76 360.439 990.195 283.484C896.625 206.529 788.208 181.118 788.785 180.463C789.362 179.808 898.201 204.74 991.77 281.695C1085.34 358.651 1128.21 458.488 1127.63 459.142Z" fill="white"/>
<path d="M1118.22 449.803C1117.72 450.377 1073.6 359.645 984.564 287.718C895.53 215.79 795.302 189.906 795.799 189.332C796.296 188.758 896.887 214.222 985.921 286.149C1074.95 358.076 1118.72 449.229 1118.22 449.803Z" fill="white"/>
<path d="M1111.42 444.955C1111 445.443 1067.36 363.301 984.081 296.02C900.797 228.738 809.405 201.796 809.828 201.307C810.251 200.818 901.952 227.403 985.236 294.685C1068.52 361.966 1111.85 444.466 1111.42 444.955Z" fill="white"/>
<path d="M1107.92 451.733C1107.49 452.222 1063.86 370.08 980.573 302.798C897.29 235.517 805.898 208.575 806.321 208.086C806.743 207.597 898.445 234.182 981.728 301.463C1065.01 368.745 1108.34 451.244 1107.92 451.733Z" fill="white"/>
<path d="M1093.23 440.62C1092.88 441.025 1051.59 368.796 976.235 307.92C900.88 247.043 819.999 220.573 820.349 220.168C820.7 219.763 901.837 245.937 977.192 306.813C1052.55 367.689 1093.58 440.215 1093.23 440.62Z" fill="white"/>
<path d="M1084.55 438.715C1084.26 439.055 1042.99 373.139 971.61 315.477C900.234 257.816 825.786 230.244 826.08 229.904C826.374 229.565 901.037 256.888 972.412 314.55C1043.79 372.211 1084.85 438.376 1084.55 438.715Z" fill="white"/>
<path d="M1074.44 435.425C1074.21 435.7 1035.29 377.873 970.707 325.7C906.126 273.527 840.334 246.764 840.572 246.489C840.81 246.214 906.775 272.776 971.357 324.949C1035.94 377.122 1074.68 435.15 1074.44 435.425Z" fill="white"/>
<path d="M1065.53 433.844C1065.36 434.043 1025.68 382.922 964.751 333.702C903.825 284.482 844.728 255.8 844.9 255.602C845.072 255.403 904.294 283.939 965.221 333.16C1026.15 382.38 1065.71 433.645 1065.53 433.844Z" fill="white"/>
<path d="M1050.57 430.455C1050.42 430.628 1012.85 383.64 956.058 337.758C899.263 291.876 844.749 264.474 844.9 264.301C845.05 264.127 899.673 291.402 956.468 337.284C1013.26 383.166 1050.72 430.281 1050.57 430.455Z" fill="white"/>
<path d="M1039.67 427.066C1039.54 427.206 1003.6 384.681 950.781 342.014C897.967 299.347 848.285 272.696 848.407 272.556C848.528 272.415 898.299 298.963 951.113 341.63C1003.93 384.297 1039.79 426.925 1039.67 427.066Z" fill="white"/>
<path d="M1178.55 496.613C1177.53 497.746 1140.82 354.664 1024.59 257.092C908.357 159.52 756.612 144.407 757.631 143.274C758.65 142.14 911.14 156.425 1027.37 253.997C1143.6 351.569 1179.57 495.48 1178.55 496.613Z" fill="white"/>
<path d="M1193.81 522.106C1192.54 523.511 1159.59 356.578 1030.92 248.52C902.252 140.463 726.595 132.199 727.859 130.794C729.123 129.389 905.703 136.625 1034.37 244.683C1163.04 352.741 1195.07 520.701 1193.81 522.106Z" fill="white"/>
<path d="M1163.18 467.717C1162.36 468.672 1120.11 344.165 1011.1 257.102C902.082 170.038 767.586 153.387 768.403 152.432C769.22 151.477 904.313 167.43 1013.33 254.493C1122.34 341.557 1163.99 466.762 1163.18 467.717Z" fill="white"/>
<path d="M1156.65 471.914C1155.83 472.87 1113.58 348.363 1004.57 261.299C895.552 174.235 761.056 157.584 761.872 156.629C762.689 155.674 897.783 171.627 1006.8 258.69C1115.81 345.754 1157.46 470.959 1156.65 471.914Z" fill="white"/>
<path d="M1141.77 453.206C1141.12 453.965 1097.25 346.849 997.951 267.544C898.652 188.239 781.526 166.776 782.175 166.017C782.824 165.259 900.423 186.168 999.722 265.473C1099.02 344.778 1142.42 452.448 1141.77 453.206Z" fill="white"/>
<path d="M1134.25 457.522C1133.6 458.281 1089.73 351.165 990.427 271.86C891.128 192.555 774.003 171.092 774.652 170.333C775.3 169.575 892.9 190.484 992.199 269.789C1091.5 349.094 1134.89 456.764 1134.25 457.522Z" fill="white"/>
<path d="M1127.63 459.142C1127.05 459.797 1083.76 360.439 990.195 283.484C896.625 206.529 788.208 181.118 788.785 180.463C789.362 179.808 898.201 204.74 991.77 281.695C1085.34 358.651 1128.21 458.488 1127.63 459.142Z" fill="white"/>
<path d="M1118.22 449.803C1117.72 450.377 1073.6 359.645 984.564 287.718C895.53 215.79 795.302 189.906 795.799 189.332C796.296 188.758 896.887 214.222 985.921 286.149C1074.95 358.076 1118.72 449.229 1118.22 449.803Z" fill="white"/>
<path d="M1111.42 444.955C1111 445.443 1067.36 363.301 984.081 296.02C900.797 228.738 809.405 201.796 809.828 201.307C810.251 200.818 901.952 227.403 985.236 294.685C1068.52 361.966 1111.85 444.466 1111.42 444.955Z" fill="white"/>
<path d="M1107.92 451.733C1107.49 452.222 1063.86 370.08 980.573 302.798C897.29 235.517 805.898 208.575 806.321 208.086C806.743 207.597 898.445 234.182 981.728 301.463C1065.01 368.745 1108.34 451.244 1107.92 451.733Z" fill="white"/>
<path d="M1093.23 440.62C1092.88 441.025 1051.59 368.796 976.235 307.92C900.88 247.043 819.999 220.573 820.349 220.168C820.7 219.763 901.837 245.937 977.192 306.813C1052.55 367.689 1093.58 440.215 1093.23 440.62Z" fill="white"/>
<path d="M1084.55 438.715C1084.26 439.055 1042.99 373.139 971.61 315.477C900.234 257.816 825.786 230.244 826.08 229.904C826.374 229.565 901.037 256.888 972.412 314.55C1043.79 372.211 1084.85 438.376 1084.55 438.715Z" fill="white"/>
<path d="M1074.44 435.425C1074.21 435.7 1035.29 377.873 970.707 325.7C906.126 273.527 840.334 246.764 840.572 246.489C840.81 246.214 906.775 272.776 971.357 324.949C1035.94 377.122 1074.68 435.15 1074.44 435.425Z" fill="white"/>
<path d="M1065.53 433.844C1065.36 434.043 1025.68 382.922 964.751 333.702C903.825 284.482 844.728 255.8 844.9 255.602C845.072 255.403 904.294 283.939 965.221 333.16C1026.15 382.38 1065.71 433.645 1065.53 433.844Z" fill="white"/>
<path d="M1050.57 430.455C1050.42 430.628 1012.85 383.64 956.058 337.758C899.263 291.876 844.749 264.474 844.9 264.301C845.05 264.127 899.673 291.402 956.468 337.284C1013.26 383.166 1050.72 430.281 1050.57 430.455Z" fill="white"/>
<path d="M1039.67 427.066C1039.54 427.206 1003.6 384.681 950.781 342.014C897.967 299.347 848.285 272.696 848.407 272.556C848.528 272.415 898.299 298.963 951.113 341.63C1003.93 384.297 1039.79 426.925 1039.67 427.066Z" fill="white"/>
<path d="M1178.55 496.613C1177.53 497.746 1140.82 354.664 1024.59 257.092C908.357 159.52 756.612 144.407 757.631 143.274C758.65 142.14 911.14 156.425 1027.37 253.997C1143.6 351.569 1179.57 495.48 1178.55 496.613Z" fill="white"/>
<path d="M1193.81 522.106C1192.54 523.511 1159.59 356.578 1030.92 248.52C902.252 140.463 726.595 132.199 727.859 130.794C729.123 129.389 905.703 136.625 1034.37 244.683C1163.04 352.741 1195.07 520.701 1193.81 522.106Z" fill="white"/>
<path d="M297.228 720.617C298.026 719.647 342.769 843.338 453.512 928.34C564.254 1013.34 699.059 1027.47 698.262 1028.44C697.464 1029.41 562.076 1015.99 451.333 930.99C340.591 845.988 296.431 721.588 297.228 720.617Z" fill="white"/>
<path d="M303.674 716.298C304.471 715.328 349.215 839.019 459.957 924.022C570.699 1009.02 705.505 1023.15 704.707 1024.12C703.909 1025.09 568.521 1011.67 457.779 926.671C347.037 841.669 302.876 717.269 303.674 716.298Z" fill="white"/>
<path d="M318.925 734.724C319.558 733.954 365.572 840.226 466.445 917.653C567.318 995.081 684.853 1014.34 684.22 1015.11C683.586 1015.88 565.589 997.185 464.715 919.758C363.842 842.33 318.291 735.495 318.925 734.724Z" fill="white"/>
<path d="M326.359 730.268C326.993 729.497 373.006 835.77 473.88 913.197C574.753 990.624 692.288 1009.89 691.654 1010.66C691.021 1011.43 573.023 992.729 472.15 915.301C371.277 837.874 325.726 731.039 326.359 730.268Z" fill="white"/>
<path d="M332.942 728.524C333.505 727.858 378.781 826.386 473.879 901.571C568.977 976.757 677.884 1000.13 677.321 1000.79C676.757 1001.46 567.438 978.574 472.34 903.389C377.243 828.204 332.378 729.19 332.942 728.524Z" fill="white"/>
<path d="M342.538 737.685C343.023 737.102 388.962 826.989 479.424 897.233C569.886 967.476 670.615 991.475 670.13 992.059C669.645 992.642 568.561 969.07 478.099 898.826C387.637 828.583 342.052 738.269 342.538 737.685Z" fill="white"/>
<path d="M349.429 742.405C349.842 741.908 395.121 823.217 479.74 888.923C564.359 954.63 656.276 979.853 655.863 980.349C655.45 980.846 563.232 955.986 478.612 890.28C393.993 824.573 349.016 742.902 349.429 742.405Z" fill="white"/>
<path d="M352.8 735.562C353.213 735.065 398.491 816.373 483.111 882.08C567.73 947.786 659.647 973.009 659.234 973.506C658.821 974.003 566.602 949.143 481.983 883.436C397.363 817.73 352.387 736.058 352.8 735.562Z" fill="white"/>
<path d="M367.703 746.398C368.046 745.986 410.782 817.427 487.346 876.878C563.909 936.33 645.307 961.278 644.964 961.689C644.622 962.101 562.974 937.454 486.411 878.003C409.847 818.552 367.361 746.809 367.703 746.398Z" fill="white"/>
<path d="M376.419 748.139C376.706 747.794 419.297 812.924 491.818 869.235C564.338 925.547 639.326 951.717 639.039 952.062C638.752 952.407 563.555 926.489 491.034 870.177C418.514 813.866 376.132 748.484 376.419 748.139Z" fill="white"/>
<path d="M386.594 751.239C386.826 750.96 426.897 808.046 492.515 858.997C558.133 909.949 624.449 935.473 624.217 935.752C623.984 936.032 557.498 910.713 491.88 859.761C426.262 808.809 386.361 751.519 386.594 751.239Z" fill="white"/>
<path d="M395.533 752.653C395.701 752.451 436.405 802.817 498.309 850.885C560.213 898.953 619.875 926.521 619.707 926.723C619.539 926.925 559.754 899.504 497.85 851.436C435.946 803.368 395.365 752.855 395.533 752.653Z" fill="white"/>
<path d="M410.561 755.761C410.708 755.584 449.213 801.859 506.919 846.667C564.625 891.475 619.679 917.849 619.532 918.026C619.386 918.202 564.225 891.957 506.519 847.149C448.813 802.34 410.415 755.937 410.561 755.761Z" fill="white"/>
<path d="M421.534 758.944C421.653 758.801 458.448 800.645 512.11 842.313C565.771 883.981 615.979 909.695 615.86 909.837C615.741 909.98 565.447 884.371 511.785 842.703C458.124 801.035 421.415 759.087 421.534 758.944Z" fill="white"/>
<path d="M281.282 692.016C282.277 690.863 321.85 833.23 440.021 928.603C558.191 1023.98 710.212 1036.24 709.216 1037.39C708.22 1038.54 555.472 1027.12 437.301 931.75C319.13 836.377 280.286 693.168 281.282 692.016Z" fill="white"/>
<path d="M265.512 666.814C266.747 665.385 303.05 831.668 433.864 937.292C564.679 1042.92 740.468 1047.88 739.233 1049.31C737.997 1050.74 561.305 1046.82 430.491 941.194C299.676 835.57 264.277 668.242 265.512 666.814Z" fill="white"/>
<path d="M297.228 720.617C298.026 719.647 342.769 843.338 453.512 928.34C564.254 1013.34 699.059 1027.47 698.262 1028.44C697.464 1029.41 562.076 1015.99 451.333 930.99C340.591 845.988 296.431 721.588 297.228 720.617Z" fill="white"/>
<path d="M303.674 716.298C304.471 715.328 349.215 839.019 459.957 924.022C570.699 1009.02 705.505 1023.15 704.707 1024.12C703.909 1025.09 568.521 1011.67 457.779 926.671C347.037 841.669 302.876 717.269 303.674 716.298Z" fill="white"/>
<path d="M318.925 734.724C319.558 733.954 365.572 840.226 466.445 917.653C567.318 995.081 684.853 1014.34 684.22 1015.11C683.586 1015.88 565.589 997.185 464.715 919.758C363.842 842.33 318.291 735.495 318.925 734.724Z" fill="white"/>
<path d="M326.359 730.268C326.993 729.497 373.006 835.77 473.88 913.197C574.753 990.624 692.288 1009.89 691.654 1010.66C691.021 1011.43 573.023 992.729 472.15 915.301C371.277 837.874 325.726 731.039 326.359 730.268Z" fill="white"/>
<path d="M332.942 728.524C333.505 727.858 378.781 826.386 473.879 901.571C568.977 976.757 677.884 1000.13 677.321 1000.79C676.757 1001.46 567.438 978.574 472.34 903.389C377.243 828.204 332.378 729.19 332.942 728.524Z" fill="white"/>
<path d="M342.538 737.685C343.023 737.102 388.962 826.989 479.424 897.233C569.886 967.476 670.615 991.475 670.13 992.059C669.645 992.642 568.561 969.07 478.099 898.826C387.637 828.583 342.052 738.269 342.538 737.685Z" fill="white"/>
<path d="M349.429 742.405C349.842 741.908 395.121 823.217 479.74 888.923C564.359 954.63 656.276 979.853 655.863 980.349C655.45 980.846 563.232 955.986 478.612 890.28C393.993 824.573 349.016 742.902 349.429 742.405Z" fill="white"/>
<path d="M352.8 735.562C353.213 735.065 398.491 816.373 483.111 882.08C567.73 947.786 659.647 973.009 659.234 973.506C658.821 974.003 566.602 949.143 481.983 883.436C397.363 817.73 352.387 736.058 352.8 735.562Z" fill="white"/>
<path d="M367.703 746.398C368.046 745.986 410.782 817.427 487.346 876.878C563.909 936.33 645.307 961.278 644.964 961.689C644.622 962.101 562.974 937.454 486.411 878.003C409.847 818.552 367.361 746.809 367.703 746.398Z" fill="white"/>
<path d="M376.419 748.139C376.706 747.794 419.297 812.924 491.818 869.235C564.338 925.547 639.326 951.717 639.039 952.062C638.752 952.407 563.555 926.489 491.034 870.177C418.514 813.866 376.132 748.484 376.419 748.139Z" fill="white"/>
<path d="M386.594 751.239C386.826 750.96 426.897 808.046 492.515 858.997C558.133 909.949 624.449 935.473 624.217 935.752C623.984 936.032 557.498 910.713 491.88 859.761C426.262 808.809 386.361 751.519 386.594 751.239Z" fill="white"/>
<path d="M395.533 752.653C395.701 752.451 436.405 802.817 498.309 850.885C560.213 898.953 619.875 926.521 619.707 926.723C619.539 926.925 559.754 899.504 497.85 851.436C435.946 803.368 395.365 752.855 395.533 752.653Z" fill="white"/>
<path d="M410.561 755.761C410.708 755.584 449.213 801.859 506.919 846.667C564.625 891.475 619.679 917.849 619.532 918.026C619.386 918.202 564.225 891.957 506.519 847.149C448.813 802.34 410.415 755.937 410.561 755.761Z" fill="white"/>
<path d="M421.534 758.944C421.653 758.801 458.448 800.645 512.11 842.313C565.771 883.981 615.979 909.695 615.86 909.837C615.741 909.98 565.447 884.371 511.785 842.703C458.124 801.035 421.415 759.087 421.534 758.944Z" fill="white"/>
<path d="M281.282 692.016C282.277 690.863 321.85 833.23 440.021 928.603C558.191 1023.98 710.212 1036.24 709.216 1037.39C708.22 1038.54 555.472 1027.12 437.301 931.75C319.13 836.377 280.286 693.168 281.282 692.016Z" fill="white"/>
<path d="M265.512 666.814C266.747 665.385 303.05 831.668 433.864 937.292C564.679 1042.92 740.468 1047.88 739.233 1049.31C737.997 1050.74 561.305 1046.82 430.491 941.194C299.676 835.57 264.277 668.242 265.512 666.814Z" fill="white"/>
<ellipse cx="728.392" cy="591.454" rx="8.7688" ry="8.47356" fill="black"/>
<path d="M890.211 591.831C890.211 681.25 817.883 753.728 728.673 753.728C639.463 753.728 567.135 681.25 567.135 591.831C567.135 502.412 639.463 429.933 728.673 429.933C817.883 429.933 890.211 502.412 890.211 591.831Z" fill="#FF7C7C" stroke="#FF0000" stroke-width="5"/>
<ellipse cx="730.313" cy="593.475" rx="8.20191" ry="8.21987" fill="black"/>
<line y1="-1.5" x2="319.33" y2="-1.5" transform="matrix(0.999994 -0.00343214 0.00341715 0.999994 566.822 535.936)" stroke="black" stroke-width="3"/>
<line y1="-1.5" x2="310.581" y2="-1.5" transform="matrix(0.999994 -0.00352882 0.00351341 0.999994 566.822 523.88)" stroke="black" stroke-width="3"/>
<line y1="-1.5" x2="310.581" y2="-1.5" transform="matrix(0.999994 -0.00352882 0.00351341 0.999994 566.822 511.824)" stroke="black" stroke-width="3"/>
<line y1="-1.5" x2="310.581" y2="-1.5" transform="matrix(0.999994 -0.00352882 0.00351341 0.999994 566.822 499.768)" stroke="black" stroke-width="3"/>
<line y1="-1.5" x2="310.581" y2="-1.5" transform="matrix(0.999994 -0.00352882 0.00351341 0.999994 566.822 487.713)" stroke="black" stroke-width="3"/>
<line y1="-1.5" x2="310.581" y2="-1.5" transform="matrix(0.999994 -0.00352882 0.00351341 0.999994 566.822 475.657)" stroke="black" stroke-width="3"/>
<line y1="-1.5" x2="310.581" y2="-1.5" transform="matrix(0.999994 -0.00352882 0.00351341 0.999994 566.822 463.601)" stroke="black" stroke-width="3"/>
<line y1="-1.5" x2="310.581" y2="-1.5" transform="matrix(0.999994 -0.00352882 0.00351341 0.999994 566.822 451.545)" stroke="black" stroke-width="3"/>
<line y1="-1.5" x2="310.581" y2="-1.5" transform="matrix(0.999994 -0.00352882 0.00351341 0.999994 566.822 439.489)" stroke="black" stroke-width="3"/>
<path d="M1060.18 591.831C1060.18 774.796 912.199 923.025 729.767 923.025C547.334 923.025 399.351 774.796 399.351 591.831C399.351 408.866 547.334 260.636 729.767 260.636C912.199 260.636 1060.18 408.866 1060.18 591.831Z" stroke="#666666" stroke-opacity="0.46" stroke-width="50"/>
<path d="M1000.04 591.831C1000.04 741.505 878.98 862.746 729.767 862.746C580.553 862.746 459.498 741.505 459.498 591.831C459.498 442.157 580.553 320.915 729.767 320.915C878.98 320.915 1000.04 442.157 1000.04 591.831Z" stroke="#666666" stroke-opacity="0.46" stroke-width="50"/>
<path d="M967.228 591.831C967.228 723.346 860.861 829.867 729.767 829.867C598.672 829.867 492.305 723.346 492.305 591.831C492.305 460.316 598.672 353.795 729.767 353.795C860.861 353.795 967.228 460.316 967.228 591.831Z" stroke="#666666" stroke-opacity="0.46" stroke-width="50"/>
<path d="M1098.46 594.023C1098.46 798.173 933.338 963.576 729.766 963.576C526.195 963.576 361.075 798.173 361.075 594.023C361.075 389.872 526.195 224.469 729.766 224.469C933.338 224.469 1098.46 389.872 1098.46 594.023Z" stroke="#666666" stroke-opacity="0.34" stroke-width="50"/>
<path d="M661.305 646.023H655.899L655.87 643.752H660.777C661.588 643.752 662.296 643.615 662.901 643.342C663.507 643.069 663.975 642.678 664.308 642.17C664.649 641.653 664.82 641.037 664.82 640.324C664.82 639.543 664.669 638.908 664.366 638.42C664.073 637.922 663.619 637.561 663.004 637.336C662.398 637.102 661.627 636.985 660.689 636.985H656.529V655.998H653.702V634.67H660.689C661.783 634.67 662.76 634.782 663.619 635.007C664.478 635.222 665.206 635.564 665.802 636.032C666.407 636.491 666.866 637.077 667.179 637.79C667.491 638.503 667.647 639.358 667.647 640.354C667.647 641.233 667.423 642.029 666.974 642.741C666.524 643.445 665.899 644.021 665.099 644.47C664.308 644.919 663.38 645.207 662.315 645.334L661.305 646.023ZM661.173 655.998H654.786L656.383 653.698H661.173C662.071 653.698 662.833 653.542 663.458 653.23C664.093 652.917 664.576 652.478 664.908 651.911C665.24 651.335 665.406 650.656 665.406 649.875C665.406 649.084 665.265 648.401 664.981 647.824C664.698 647.248 664.254 646.804 663.648 646.491C663.043 646.179 662.262 646.023 661.305 646.023H657.276L657.306 643.752H662.813L663.414 644.572C664.439 644.66 665.308 644.953 666.021 645.451C666.734 645.94 667.276 646.565 667.647 647.326C668.028 648.088 668.219 648.928 668.219 649.846C668.219 651.174 667.926 652.297 667.34 653.215C666.764 654.123 665.948 654.817 664.893 655.295C663.839 655.764 662.599 655.998 661.173 655.998ZM678.56 656.291C677.457 656.291 676.456 656.106 675.558 655.735C674.669 655.354 673.902 654.821 673.258 654.138C672.623 653.454 672.135 652.644 671.793 651.706C671.451 650.769 671.28 649.743 671.28 648.63V648.015C671.28 646.726 671.471 645.578 671.851 644.572C672.232 643.557 672.75 642.697 673.404 641.994C674.058 641.291 674.801 640.759 675.631 640.398C676.461 640.036 677.32 639.856 678.209 639.856C679.342 639.856 680.318 640.051 681.139 640.442C681.969 640.832 682.647 641.379 683.175 642.082C683.702 642.776 684.093 643.596 684.347 644.543C684.6 645.481 684.727 646.506 684.727 647.619V648.835H672.892V646.623H682.017V646.418C681.978 645.715 681.832 645.031 681.578 644.367C681.334 643.703 680.943 643.156 680.406 642.727C679.869 642.297 679.137 642.082 678.209 642.082C677.594 642.082 677.027 642.214 676.51 642.478C675.992 642.732 675.548 643.112 675.177 643.62C674.806 644.128 674.517 644.748 674.312 645.481C674.107 646.213 674.005 647.058 674.005 648.015V648.63C674.005 649.382 674.107 650.09 674.312 650.754C674.527 651.408 674.835 651.985 675.235 652.483C675.645 652.981 676.139 653.371 676.715 653.654C677.301 653.938 677.965 654.079 678.707 654.079C679.664 654.079 680.475 653.884 681.139 653.493C681.803 653.103 682.384 652.58 682.882 651.926L684.522 653.23C684.181 653.747 683.746 654.24 683.219 654.709C682.691 655.178 682.042 655.559 681.27 655.852C680.509 656.145 679.605 656.291 678.56 656.291ZM697.237 653.288V645.129C697.237 644.504 697.11 643.962 696.856 643.503C696.612 643.034 696.241 642.673 695.743 642.419C695.245 642.165 694.63 642.038 693.897 642.038C693.214 642.038 692.613 642.155 692.096 642.39C691.588 642.624 691.187 642.932 690.894 643.313C690.611 643.694 690.47 644.104 690.47 644.543H687.76C687.76 643.977 687.906 643.415 688.199 642.859C688.492 642.302 688.912 641.799 689.459 641.35C690.016 640.891 690.68 640.529 691.451 640.266C692.232 639.992 693.101 639.856 694.058 639.856C695.211 639.856 696.226 640.051 697.105 640.442C697.994 640.832 698.687 641.423 699.185 642.214C699.693 642.995 699.947 643.977 699.947 645.158V652.541C699.947 653.069 699.991 653.63 700.079 654.226C700.177 654.821 700.318 655.334 700.504 655.764V655.998H697.677C697.54 655.686 697.433 655.271 697.354 654.753C697.276 654.226 697.237 653.737 697.237 653.288ZM697.706 646.389L697.735 648.293H694.996C694.225 648.293 693.536 648.357 692.931 648.484C692.325 648.601 691.817 648.781 691.407 649.026C690.997 649.27 690.684 649.577 690.47 649.948C690.255 650.31 690.147 650.735 690.147 651.223C690.147 651.721 690.26 652.175 690.484 652.585C690.709 652.995 691.046 653.322 691.495 653.567C691.954 653.801 692.516 653.918 693.18 653.918C694.01 653.918 694.742 653.742 695.377 653.391C696.012 653.039 696.515 652.61 696.886 652.102C697.267 651.594 697.472 651.101 697.501 650.622L698.658 651.926C698.59 652.336 698.404 652.79 698.101 653.288C697.799 653.786 697.393 654.265 696.886 654.724C696.388 655.173 695.792 655.549 695.099 655.852C694.415 656.145 693.643 656.291 692.784 656.291C691.71 656.291 690.767 656.081 689.957 655.661C689.156 655.241 688.531 654.68 688.082 653.977C687.642 653.264 687.423 652.468 687.423 651.589C687.423 650.739 687.589 649.992 687.921 649.348C688.253 648.694 688.731 648.152 689.356 647.722C689.981 647.282 690.733 646.95 691.612 646.726C692.491 646.501 693.473 646.389 694.557 646.389H697.706ZM704.869 633.498V635.11L704.561 640.5H702.672L702.686 635.359V633.498H704.869ZM716.515 651.794C716.515 651.404 716.427 651.042 716.251 650.71C716.085 650.368 715.738 650.061 715.211 649.787C714.693 649.504 713.912 649.26 712.867 649.055C711.988 648.869 711.192 648.65 710.479 648.396C709.776 648.142 709.176 647.834 708.678 647.473C708.189 647.112 707.813 646.687 707.55 646.198C707.286 645.71 707.154 645.139 707.154 644.485C707.154 643.86 707.291 643.269 707.564 642.712C707.848 642.155 708.243 641.662 708.751 641.233C709.268 640.803 709.889 640.466 710.611 640.222C711.334 639.978 712.14 639.856 713.028 639.856C714.298 639.856 715.382 640.08 716.28 640.529C717.179 640.979 717.867 641.579 718.346 642.331C718.824 643.073 719.063 643.899 719.063 644.807H716.353C716.353 644.367 716.222 643.943 715.958 643.532C715.704 643.112 715.328 642.766 714.83 642.492C714.342 642.219 713.741 642.082 713.028 642.082C712.276 642.082 711.666 642.199 711.197 642.434C710.738 642.658 710.401 642.946 710.186 643.298C709.981 643.65 709.879 644.021 709.879 644.411C709.879 644.704 709.928 644.968 710.025 645.202C710.133 645.427 710.318 645.637 710.582 645.832C710.846 646.018 711.217 646.194 711.695 646.36C712.174 646.526 712.784 646.692 713.526 646.858C714.825 647.151 715.894 647.502 716.734 647.912C717.574 648.322 718.199 648.825 718.609 649.421C719.019 650.017 719.225 650.739 719.225 651.589C719.225 652.282 719.078 652.917 718.785 653.493C718.502 654.07 718.087 654.568 717.54 654.987C717.003 655.398 716.358 655.72 715.606 655.954C714.864 656.179 714.029 656.291 713.101 656.291C711.705 656.291 710.523 656.042 709.557 655.544C708.59 655.046 707.857 654.402 707.359 653.611C706.861 652.82 706.612 651.985 706.612 651.106H709.337C709.376 651.848 709.591 652.439 709.981 652.878C710.372 653.308 710.85 653.615 711.417 653.801C711.983 653.977 712.545 654.065 713.101 654.065C713.844 654.065 714.464 653.967 714.962 653.772C715.47 653.576 715.855 653.308 716.119 652.966C716.383 652.624 716.515 652.234 716.515 651.794ZM731.529 634.67H734.268L741.256 652.058L748.228 634.67H750.982L742.31 655.998H740.172L731.529 634.67ZM730.636 634.67H733.053L733.448 647.678V655.998H730.636V634.67ZM749.444 634.67H751.861V655.998H749.049V647.678L749.444 634.67ZM766.114 652.336V640.149H768.839V655.998H766.246L766.114 652.336ZM766.627 648.996L767.755 648.967C767.755 650.022 767.642 650.998 767.418 651.897C767.203 652.785 766.851 653.557 766.363 654.211C765.875 654.865 765.235 655.378 764.444 655.749C763.653 656.111 762.691 656.291 761.558 656.291C760.787 656.291 760.079 656.179 759.434 655.954C758.8 655.73 758.253 655.383 757.794 654.914C757.335 654.445 756.978 653.835 756.725 653.083C756.48 652.331 756.358 651.428 756.358 650.373V640.149H759.068V650.403C759.068 651.115 759.146 651.706 759.303 652.175C759.469 652.634 759.688 653 759.962 653.274C760.245 653.537 760.558 653.723 760.899 653.83C761.251 653.938 761.612 653.991 761.983 653.991C763.136 653.991 764.049 653.772 764.723 653.332C765.396 652.883 765.88 652.282 766.173 651.53C766.475 650.769 766.627 649.924 766.627 648.996ZM782.198 651.794C782.198 651.404 782.11 651.042 781.934 650.71C781.768 650.368 781.422 650.061 780.894 649.787C780.377 649.504 779.596 649.26 778.551 649.055C777.672 648.869 776.876 648.65 776.163 648.396C775.46 648.142 774.859 647.834 774.361 647.473C773.873 647.112 773.497 646.687 773.233 646.198C772.97 645.71 772.838 645.139 772.838 644.485C772.838 643.86 772.975 643.269 773.248 642.712C773.531 642.155 773.927 641.662 774.434 641.233C774.952 640.803 775.572 640.466 776.295 640.222C777.017 639.978 777.823 639.856 778.712 639.856C779.981 639.856 781.065 640.08 781.964 640.529C782.862 640.979 783.551 641.579 784.029 642.331C784.508 643.073 784.747 643.899 784.747 644.807H782.037C782.037 644.367 781.905 643.943 781.642 643.532C781.388 643.112 781.012 642.766 780.514 642.492C780.025 642.219 779.425 642.082 778.712 642.082C777.96 642.082 777.35 642.199 776.881 642.434C776.422 642.658 776.085 642.946 775.87 643.298C775.665 643.65 775.562 644.021 775.562 644.411C775.562 644.704 775.611 644.968 775.709 645.202C775.816 645.427 776.002 645.637 776.266 645.832C776.529 646.018 776.9 646.194 777.379 646.36C777.857 646.526 778.468 646.692 779.21 646.858C780.509 647.151 781.578 647.502 782.418 647.912C783.258 648.322 783.883 648.825 784.293 649.421C784.703 650.017 784.908 650.739 784.908 651.589C784.908 652.282 784.762 652.917 784.469 653.493C784.185 654.07 783.77 654.568 783.224 654.987C782.686 655.398 782.042 655.72 781.29 655.954C780.548 656.179 779.713 656.291 778.785 656.291C777.389 656.291 776.207 656.042 775.24 655.544C774.273 655.046 773.541 654.402 773.043 653.611C772.545 652.82 772.296 651.985 772.296 651.106H775.02C775.059 651.848 775.274 652.439 775.665 652.878C776.056 653.308 776.534 653.615 777.1 653.801C777.667 653.977 778.228 654.065 778.785 654.065C779.527 654.065 780.147 653.967 780.645 653.772C781.153 653.576 781.539 653.308 781.803 652.966C782.066 652.624 782.198 652.234 782.198 651.794ZM791.412 640.149V655.998H788.687V640.149H791.412ZM788.482 635.945C788.482 635.505 788.614 635.134 788.878 634.831C789.151 634.529 789.552 634.377 790.079 634.377C790.597 634.377 790.992 634.529 791.266 634.831C791.549 635.134 791.69 635.505 791.69 635.945C791.69 636.364 791.549 636.726 791.266 637.029C790.992 637.321 790.597 637.468 790.079 637.468C789.552 637.468 789.151 637.321 788.878 637.029C788.614 636.726 788.482 636.364 788.482 635.945ZM802.105 654.065C802.75 654.065 803.346 653.933 803.892 653.669C804.439 653.405 804.889 653.044 805.24 652.585C805.592 652.116 805.792 651.584 805.841 650.988H808.419C808.37 651.926 808.053 652.8 807.467 653.611C806.891 654.411 806.134 655.061 805.196 655.559C804.259 656.047 803.228 656.291 802.105 656.291C800.914 656.291 799.874 656.081 798.985 655.661C798.106 655.241 797.374 654.665 796.788 653.933C796.212 653.2 795.777 652.361 795.484 651.413C795.201 650.456 795.059 649.445 795.059 648.381V647.766C795.059 646.701 795.201 645.695 795.484 644.748C795.777 643.791 796.212 642.946 796.788 642.214C797.374 641.482 798.106 640.905 798.985 640.486C799.874 640.066 800.914 639.856 802.105 639.856C803.346 639.856 804.43 640.11 805.357 640.617C806.285 641.115 807.013 641.799 807.54 642.668C808.077 643.528 808.37 644.504 808.419 645.598H805.841C805.792 644.944 805.606 644.353 805.284 643.825C804.972 643.298 804.542 642.878 803.995 642.566C803.458 642.243 802.828 642.082 802.105 642.082C801.275 642.082 800.577 642.248 800.011 642.58C799.454 642.903 799.01 643.342 798.678 643.899C798.355 644.445 798.121 645.056 797.975 645.73C797.838 646.394 797.769 647.072 797.769 647.766V648.381C797.769 649.074 797.838 649.758 797.975 650.432C798.111 651.106 798.341 651.716 798.663 652.263C798.995 652.81 799.439 653.249 799.996 653.581C800.562 653.904 801.266 654.065 802.105 654.065ZM710.421 681.023H705.016L704.986 678.752H709.893C710.704 678.752 711.412 678.615 712.017 678.342C712.623 678.069 713.092 677.678 713.424 677.17C713.766 676.653 713.936 676.037 713.936 675.324C713.936 674.543 713.785 673.908 713.482 673.42C713.189 672.922 712.735 672.561 712.12 672.336C711.515 672.102 710.743 671.985 709.806 671.985H705.645V690.998H702.818V669.67H709.806C710.899 669.67 711.876 669.782 712.735 670.007C713.595 670.222 714.322 670.564 714.918 671.032C715.523 671.491 715.982 672.077 716.295 672.79C716.607 673.503 716.764 674.358 716.764 675.354C716.764 676.233 716.539 677.029 716.09 677.741C715.641 678.445 715.016 679.021 714.215 679.47C713.424 679.919 712.496 680.207 711.432 680.334L710.421 681.023ZM710.289 690.998H703.902L705.499 688.698H710.289C711.187 688.698 711.949 688.542 712.574 688.23C713.209 687.917 713.692 687.478 714.024 686.911C714.356 686.335 714.522 685.656 714.522 684.875C714.522 684.084 714.381 683.401 714.098 682.824C713.814 682.248 713.37 681.804 712.765 681.491C712.159 681.179 711.378 681.023 710.421 681.023H706.392L706.422 678.752H711.93L712.53 679.572C713.556 679.66 714.425 679.953 715.138 680.451C715.85 680.94 716.392 681.565 716.764 682.326C717.144 683.088 717.335 683.928 717.335 684.846C717.335 686.174 717.042 687.297 716.456 688.215C715.88 689.123 715.064 689.817 714.01 690.295C712.955 690.764 711.715 690.998 710.289 690.998ZM724.044 668.498V690.998H721.319V668.498H724.044ZM727.677 683.249V682.912C727.677 681.77 727.843 680.71 728.175 679.734C728.507 678.747 728.985 677.893 729.61 677.17C730.235 676.438 730.992 675.871 731.881 675.471C732.769 675.061 733.766 674.856 734.869 674.856C735.982 674.856 736.983 675.061 737.872 675.471C738.77 675.871 739.532 676.438 740.157 677.17C740.792 677.893 741.275 678.747 741.607 679.734C741.939 680.71 742.105 681.77 742.105 682.912V683.249C742.105 684.392 741.939 685.451 741.607 686.428C741.275 687.404 740.792 688.259 740.157 688.991C739.532 689.714 738.775 690.28 737.887 690.691C737.008 691.091 736.012 691.291 734.898 691.291C733.785 691.291 732.784 691.091 731.895 690.691C731.007 690.28 730.245 689.714 729.61 688.991C728.985 688.259 728.507 687.404 728.175 686.428C727.843 685.451 727.677 684.392 727.677 683.249ZM730.387 682.912V683.249C730.387 684.04 730.479 684.787 730.665 685.49C730.85 686.184 731.129 686.799 731.5 687.336C731.881 687.873 732.354 688.298 732.921 688.611C733.487 688.913 734.146 689.065 734.898 689.065C735.641 689.065 736.29 688.913 736.847 688.611C737.413 688.298 737.882 687.873 738.253 687.336C738.624 686.799 738.902 686.184 739.088 685.49C739.283 684.787 739.381 684.04 739.381 683.249V682.912C739.381 682.131 739.283 681.394 739.088 680.7C738.902 679.997 738.619 679.377 738.238 678.84C737.867 678.293 737.398 677.863 736.832 677.551C736.275 677.238 735.621 677.082 734.869 677.082C734.127 677.082 733.473 677.238 732.906 677.551C732.35 677.863 731.881 678.293 731.5 678.84C731.129 679.377 730.85 679.997 730.665 680.7C730.479 681.394 730.387 682.131 730.387 682.912ZM755.772 675.149H758.233V690.661C758.233 692.058 757.95 693.249 757.384 694.236C756.817 695.222 756.026 695.969 755.011 696.477C754.005 696.994 752.843 697.253 751.524 697.253C750.977 697.253 750.333 697.165 749.591 696.989C748.858 696.823 748.136 696.535 747.423 696.125C746.72 695.725 746.129 695.183 745.65 694.499L747.071 692.888C747.735 693.689 748.429 694.245 749.151 694.558C749.884 694.87 750.606 695.027 751.319 695.027C752.179 695.027 752.921 694.865 753.546 694.543C754.171 694.221 754.654 693.742 754.996 693.108C755.348 692.483 755.523 691.711 755.523 690.793V678.635L755.772 675.149ZM744.859 683.249V682.942C744.859 681.731 745.001 680.632 745.284 679.646C745.577 678.65 745.992 677.795 746.529 677.082C747.076 676.369 747.735 675.822 748.507 675.442C749.278 675.051 750.147 674.856 751.114 674.856C752.11 674.856 752.979 675.031 753.722 675.383C754.474 675.725 755.108 676.228 755.626 676.892C756.153 677.546 756.568 678.337 756.871 679.265C757.174 680.193 757.384 681.242 757.501 682.414V683.762C757.393 684.924 757.183 685.969 756.871 686.897C756.568 687.824 756.153 688.615 755.626 689.27C755.108 689.924 754.474 690.427 753.722 690.779C752.97 691.12 752.091 691.291 751.085 691.291C750.138 691.291 749.278 691.091 748.507 690.691C747.745 690.29 747.091 689.729 746.544 689.006C745.997 688.283 745.577 687.434 745.284 686.457C745.001 685.471 744.859 684.402 744.859 683.249ZM747.569 682.942V683.249C747.569 684.04 747.647 684.782 747.804 685.476C747.97 686.169 748.219 686.779 748.551 687.307C748.892 687.834 749.327 688.249 749.854 688.552C750.382 688.845 751.012 688.991 751.744 688.991C752.642 688.991 753.385 688.801 753.971 688.42C754.557 688.039 755.02 687.536 755.362 686.911C755.714 686.286 755.987 685.608 756.183 684.875V681.345C756.075 680.808 755.909 680.29 755.684 679.792C755.47 679.284 755.186 678.835 754.835 678.445C754.493 678.044 754.068 677.727 753.56 677.492C753.053 677.258 752.457 677.141 751.773 677.141C751.031 677.141 750.392 677.297 749.854 677.61C749.327 677.912 748.892 678.332 748.551 678.869C748.219 679.397 747.97 680.012 747.804 680.715C747.647 681.408 747.569 682.151 747.569 682.942Z" fill="black"/>
<path d="M176.84 849.57L167.125 834.396L173.303 830.017L182.122 843.793C183.579 846.069 185.227 847.797 187.066 848.98C188.904 850.162 190.819 850.739 192.809 850.71C194.843 850.69 196.839 850.005 198.795 848.656C200.939 847.178 202.409 845.552 203.205 843.778C204.045 842.013 204.22 840.055 203.731 837.902C203.286 835.759 202.221 833.372 200.536 830.74L193.058 819.061L140.883 855.041L135.801 847.105L194.328 806.745L206.887 826.36C208.852 829.431 210.3 832.385 211.228 835.222C212.183 838.041 212.552 840.73 212.337 843.29C212.166 845.858 211.383 848.255 209.988 850.482C208.593 852.708 206.529 854.763 203.796 856.648C201.384 858.312 198.796 859.187 196.033 859.275C193.296 859.345 190.592 858.68 187.92 857.282C185.265 855.912 182.807 853.853 180.546 851.105L176.84 849.57ZM149.229 868.077L137.75 850.148L146.93 850.278L155.54 863.725C157.154 866.247 158.952 868.09 160.933 869.253C162.931 870.444 165.006 870.969 167.157 870.829C169.335 870.671 171.496 869.853 173.64 868.375C175.81 866.878 177.432 865.187 178.504 863.301C179.576 861.416 179.997 859.328 179.766 857.037C179.535 854.746 178.56 852.257 176.84 849.57L169.6 838.262L175.883 834.047L185.782 849.509L184.61 852.747C186.212 855.792 186.97 858.787 186.885 861.73C186.826 864.656 186.086 867.36 184.662 869.843C183.257 872.354 181.294 874.477 178.775 876.215C175.131 878.728 171.522 880.031 167.95 880.123C164.422 880.224 161.054 879.247 157.845 877.192C154.663 875.118 151.791 872.08 149.229 868.077Z" fill="black"/>
<path d="M217.752 965.91C215.288 963.179 213.496 960.27 212.376 957.183C211.302 954.098 210.861 950.963 211.055 947.778C211.27 944.617 212.116 941.524 213.591 938.497C215.067 935.471 217.135 932.664 219.793 930.075L221.263 928.644C224.341 925.647 227.507 923.45 230.759 922.053C234.035 920.634 237.243 919.917 240.383 919.901C243.523 919.886 246.451 920.485 249.168 921.699C251.884 922.914 254.234 924.621 256.218 926.82C258.747 929.624 260.461 932.495 261.36 935.434C262.28 938.397 262.49 941.348 261.988 944.289C261.509 947.206 260.423 950.081 258.727 952.912C257.055 955.721 254.89 958.419 252.231 961.008L249.327 963.835L222.901 934.54L228.184 929.397L248.559 951.984L249.049 951.507C250.641 949.776 251.947 947.823 252.966 945.651C254.006 943.502 254.44 941.264 254.267 938.935C254.094 936.607 252.972 934.294 250.901 931.998C249.527 930.475 247.948 929.38 246.162 928.712C244.4 928.021 242.499 927.807 240.457 928.069C238.416 928.332 236.292 929.061 234.085 930.256C231.878 931.452 229.631 933.163 227.346 935.388L225.877 936.819C224.081 938.567 222.619 940.468 221.491 942.519C220.408 944.573 219.719 946.674 219.423 948.823C219.15 950.996 219.318 953.125 219.928 955.21C220.56 957.319 221.704 959.292 223.361 961.129C225.498 963.498 227.774 965.05 230.19 965.785C232.605 966.52 235.15 966.743 237.825 966.455L238.374 973.547C236.375 973.905 234.227 973.976 231.93 973.761C229.633 973.545 227.274 972.824 224.852 971.595C222.451 970.391 220.085 968.496 217.752 965.91Z" fill="black"/>
<path d="M305.462 1038.99L321.766 1017.22C323.015 1015.56 323.77 1013.84 324.029 1012.09C324.334 1010.32 324.094 1008.58 323.312 1006.86C322.529 1005.14 321.189 1003.51 319.292 1001.97C317.522 1000.53 315.732 999.587 313.923 999.126C312.139 998.686 310.488 998.667 308.968 999.068C307.473 999.49 306.287 1000.29 305.409 1001.46L298.389 995.774C299.521 994.263 301.023 993.072 302.894 992.201C304.765 991.331 306.858 990.87 309.172 990.819C311.531 990.763 313.973 991.192 316.498 992.107C319.068 993.017 321.592 994.476 324.071 996.484C327.056 998.902 329.296 1001.55 330.792 1004.44C332.313 1007.35 332.929 1010.38 332.638 1013.53C332.392 1016.68 331.088 1019.83 328.727 1022.99L313.974 1042.68C312.92 1044.09 311.912 1045.68 310.949 1047.45C310.011 1049.25 309.354 1050.91 308.976 1052.45L308.507 1053.07L301.185 1047.14C301.455 1046.02 302.006 1044.69 302.838 1043.14C303.69 1041.57 304.564 1040.19 305.462 1038.99ZM320.463 1021.57L316.734 1026.71L309.639 1020.96C307.64 1019.34 305.73 1018.07 303.908 1017.14C302.106 1016.18 300.43 1015.59 298.879 1015.39C297.329 1015.18 295.905 1015.34 294.607 1015.88C293.329 1016.39 292.201 1017.3 291.226 1018.6C290.23 1019.93 289.614 1021.38 289.376 1022.95C289.138 1024.51 289.357 1026.09 290.033 1027.69C290.753 1029.27 291.973 1030.76 293.693 1032.16C295.843 1033.9 298.092 1034.97 300.438 1035.36C302.785 1035.75 304.946 1035.66 306.922 1035.09C308.923 1034.53 310.44 1033.65 311.472 1032.43L311.864 1038.34C310.868 1039.29 309.48 1040.11 307.7 1040.8C305.921 1041.5 303.915 1041.92 301.683 1042.08C299.495 1042.24 297.201 1041.99 294.8 1041.34C292.444 1040.69 290.153 1039.46 287.927 1037.66C285.145 1035.4 283.123 1032.87 281.863 1030.05C280.628 1027.25 280.131 1024.44 280.373 1021.62C280.659 1018.79 281.68 1016.21 283.437 1013.86C285.135 1011.6 287.057 1009.95 289.205 1008.93C291.373 1007.88 293.695 1007.44 296.173 1007.6C298.67 1007.74 301.281 1008.44 304.006 1009.68C306.732 1010.93 309.498 1012.68 312.306 1014.96L320.463 1021.57Z" fill="black"/>
<path d="M406.374 1031.91L403.634 1036.53L393.607 1051.43L388.307 1048.02L397.09 1033.31L400.253 1027.97L406.374 1031.91Z" fill="black"/>
<path d="M428.452 1115.45C428.998 1114.27 429.241 1113.05 429.18 1111.78C429.163 1110.5 428.559 1109.05 427.369 1107.43C426.222 1105.8 424.234 1103.9 421.406 1101.72C419.046 1099.85 416.98 1097.99 415.21 1096.16C413.469 1094.34 412.108 1092.52 411.129 1090.68C410.178 1088.86 409.65 1087.01 409.547 1085.14C409.443 1083.27 409.847 1081.34 410.761 1079.36C411.634 1077.47 412.867 1075.88 414.459 1074.61C416.08 1073.35 417.948 1072.44 420.062 1071.9C422.204 1071.37 424.523 1071.28 427.018 1071.62C429.513 1071.96 432.085 1072.79 434.734 1074.12C438.518 1076.01 441.435 1078.31 443.485 1081.01C445.536 1083.71 446.749 1086.55 447.125 1089.54C447.515 1092.51 447.076 1095.36 445.808 1098.11L437.73 1094.06C438.344 1092.73 438.544 1091.25 438.331 1089.62C438.161 1087.97 437.524 1086.36 436.422 1084.79C435.348 1083.23 433.749 1081.92 431.624 1080.86C429.383 1079.73 427.4 1079.18 425.676 1079.19C423.994 1079.18 422.587 1079.55 421.456 1080.29C420.354 1081.05 419.53 1082.02 418.984 1083.2C418.575 1084.09 418.353 1084.96 418.316 1085.82C418.323 1086.66 418.583 1087.57 419.096 1088.55C419.623 1089.51 420.483 1090.6 421.678 1091.81C422.872 1093.03 424.459 1094.44 426.44 1096.05C429.902 1098.88 432.598 1101.54 434.528 1104.03C436.459 1106.53 437.619 1108.98 438.01 1111.4C438.401 1113.81 438.003 1116.31 436.816 1118.88C435.848 1120.98 434.525 1122.68 432.847 1123.98C431.198 1125.31 429.265 1126.19 427.049 1126.65C424.875 1127.09 422.504 1127.1 419.936 1126.69C417.41 1126.26 414.764 1125.36 411.999 1123.97C407.837 1121.89 404.662 1119.37 402.476 1116.42C400.29 1113.47 399.007 1110.43 398.628 1107.29C398.248 1104.15 398.672 1101.25 399.899 1098.59L408.02 1102.66C407.1 1104.96 406.915 1107.07 407.466 1108.98C408.03 1110.87 409.027 1112.51 410.456 1113.92C411.898 1115.3 413.449 1116.4 415.109 1117.23C417.321 1118.34 419.305 1118.97 421.063 1119.12C422.849 1119.29 424.374 1119.05 425.637 1118.41C426.9 1117.77 427.839 1116.78 428.452 1115.45Z" fill="black"/>
<path d="M548.143 1108.51L557.125 1110.15L570.52 1171.51L602.9 1118.52L611.93 1120.17L571.822 1185.1L564.809 1183.82L548.143 1108.51ZM545.213 1107.98L553.138 1109.42L547.316 1152.43L542.763 1179.79L533.54 1178.1L545.213 1107.98ZM606.886 1119.25L614.811 1120.7L603.139 1190.83L593.917 1189.14L598.47 1161.78L606.886 1119.25Z" fill="black"/>
<path d="M728.289 1190.25L727.088 1149.64L736.166 1149.38L737.729 1202.19L729.09 1202.44L728.289 1190.25ZM729.668 1179.08L733.424 1178.87C733.528 1182.38 733.25 1185.65 732.59 1188.66C731.962 1191.64 730.866 1194.25 729.304 1196.48C727.741 1198.7 725.661 1200.47 723.062 1201.78C720.462 1203.06 717.274 1203.76 713.5 1203.87C710.929 1203.94 708.559 1203.63 706.39 1202.95C704.252 1202.26 702.396 1201.16 700.821 1199.64C699.245 1198.12 697.997 1196.12 697.077 1193.64C696.189 1191.16 695.694 1188.16 695.59 1184.65L694.582 1150.58L703.611 1150.32L704.622 1184.49C704.692 1186.86 705.011 1188.82 705.578 1190.37C706.176 1191.88 706.944 1193.08 707.882 1193.97C708.852 1194.82 709.912 1195.41 711.061 1195.73C712.243 1196.05 713.452 1196.2 714.689 1196.16C718.528 1196.05 721.549 1195.23 723.751 1193.7C725.952 1192.14 727.503 1190.1 728.405 1187.56C729.339 1185 729.76 1182.17 729.668 1179.08Z" fill="black"/>
<path d="M831.295 1179.43C831.064 1178.15 830.562 1177.02 829.79 1176.04C829.045 1175.03 827.728 1174.23 825.839 1173.67C823.977 1173.06 821.275 1172.75 817.733 1172.74C814.746 1172.68 812.011 1172.46 809.527 1172.07C807.074 1171.68 804.926 1171.05 803.082 1170.18C801.27 1169.3 799.787 1168.14 798.635 1166.71C797.483 1165.27 796.713 1163.48 796.326 1161.33C795.956 1159.28 796.054 1157.26 796.619 1155.26C797.217 1153.26 798.22 1151.39 799.628 1149.66C801.068 1147.93 802.899 1146.43 805.12 1145.18C807.341 1143.92 809.906 1143.02 812.816 1142.46C816.972 1141.66 820.653 1141.72 823.86 1142.63C827.067 1143.54 829.677 1145.08 831.688 1147.24C833.694 1149.38 834.966 1151.93 835.503 1154.91L826.632 1156.61C826.372 1155.17 825.689 1153.86 824.583 1152.68C823.503 1151.46 822.067 1150.56 820.275 1149.98C818.514 1149.39 816.467 1149.32 814.134 1149.76C811.672 1150.24 809.743 1151 808.347 1152.07C806.978 1153.09 806.045 1154.25 805.55 1155.54C805.087 1156.82 804.971 1158.1 805.202 1159.38C805.375 1160.34 805.691 1161.18 806.15 1161.88C806.634 1162.55 807.366 1163.13 808.345 1163.6C809.318 1164.04 810.637 1164.39 812.302 1164.63C813.966 1164.88 816.063 1165.04 818.591 1165.12C823.016 1165.26 826.725 1165.74 829.717 1166.56C832.709 1167.38 835.053 1168.64 836.748 1170.33C838.443 1172.03 839.543 1174.27 840.045 1177.06C840.456 1179.33 840.352 1181.51 839.734 1183.58C839.148 1185.65 838.084 1187.54 836.542 1189.26C835.027 1190.95 833.108 1192.41 830.785 1193.65C828.488 1194.85 825.821 1195.75 822.784 1196.33C818.212 1197.2 814.197 1197.13 810.737 1196.1C807.277 1195.08 804.498 1193.42 802.399 1191.14C800.3 1188.86 798.991 1186.27 798.471 1183.39L807.39 1181.68C807.957 1184.09 809.01 1185.89 810.549 1187.09C812.082 1188.25 813.831 1188.96 815.795 1189.22C817.753 1189.44 819.644 1189.37 821.466 1189.02C823.896 1188.56 825.868 1187.85 827.383 1186.89C828.929 1185.93 830.033 1184.81 830.694 1183.53C831.355 1182.24 831.555 1180.87 831.295 1179.43Z" fill="black"/>
<path d="M897.962 1123.85L912.999 1174.5L904.344 1177.25L889.306 1126.6L897.962 1123.85ZM884.666 1113.37C884.249 1111.97 884.316 1110.65 884.866 1109.42C885.448 1108.17 886.576 1107.29 888.251 1106.75C889.896 1106.23 891.296 1106.32 892.452 1107.01C893.639 1107.69 894.44 1108.73 894.857 1110.14C895.256 1111.48 895.149 1112.78 894.536 1114.03C893.946 1115.24 892.828 1116.11 891.184 1116.63C889.509 1117.16 888.098 1117.1 886.951 1116.44C885.826 1115.74 885.065 1114.72 884.666 1113.37Z" fill="black"/>
<path d="M968.591 1148.43C970.547 1147.55 972.183 1146.32 973.5 1144.76C974.817 1143.19 975.711 1141.46 976.181 1139.57C976.639 1137.65 976.555 1135.74 975.929 1133.84L983.752 1130.28C984.822 1133.23 984.995 1136.35 984.27 1139.65C983.562 1142.9 982.11 1145.94 979.912 1148.76C977.702 1151.55 974.892 1153.72 971.484 1155.27C967.869 1156.91 964.44 1157.7 961.198 1157.64C957.985 1157.56 955.014 1156.8 952.284 1155.36C949.584 1153.91 947.174 1151.93 945.054 1149.43C942.951 1146.88 941.208 1143.97 939.825 1140.71L939.025 1138.82C937.642 1135.55 936.765 1132.27 936.393 1128.97C936.039 1125.63 936.26 1122.44 937.056 1119.39C937.883 1116.34 939.357 1113.56 941.478 1111.06C943.629 1108.54 946.512 1106.46 950.128 1104.82C953.891 1103.11 957.51 1102.39 960.986 1102.67C964.448 1102.92 967.544 1104.01 970.274 1105.96C973.02 1107.85 975.178 1110.45 976.748 1113.74L968.924 1117.29C967.926 1115.35 966.595 1113.79 964.932 1112.62C963.298 1111.43 961.449 1110.74 959.383 1110.53C957.335 1110.28 955.214 1110.66 953.021 1111.65C950.502 1112.8 948.599 1114.27 947.311 1116.07C946.041 1117.83 945.264 1119.79 944.98 1121.96C944.712 1124.08 944.794 1126.28 945.225 1128.55C945.673 1130.77 946.348 1132.95 947.249 1135.08L948.048 1136.97C948.949 1139.1 950.045 1141.1 951.335 1142.98C952.626 1144.86 954.115 1146.42 955.804 1147.65C957.522 1148.87 959.441 1149.61 961.562 1149.86C963.7 1150.07 966.043 1149.59 968.591 1148.43Z" fill="black"/>
<path d="M1090.85 1050.13L1076.79 1061.39L1072.2 1055.38L1084.97 1045.15C1087.08 1043.46 1088.65 1041.62 1089.68 1039.63C1090.71 1037.63 1091.15 1035.61 1091.01 1033.56C1090.87 1031.46 1090.09 1029.46 1088.67 1027.55C1087.12 1025.46 1085.46 1024.08 1083.7 1023.41C1081.95 1022.68 1080.05 1022.66 1078 1023.35C1075.96 1023.98 1073.72 1025.27 1071.28 1027.23L1060.46 1035.9L1098.27 1086.77L1090.91 1092.66L1048.51 1035.6L1066.68 1021.04C1069.53 1018.76 1072.29 1017.02 1074.97 1015.83C1077.63 1014.62 1080.21 1014.01 1082.69 1014.03C1085.18 1013.99 1087.53 1014.6 1089.76 1015.86C1092 1017.11 1094.1 1019.07 1096.08 1021.74C1097.83 1024.09 1098.83 1026.69 1099.08 1029.53C1099.31 1032.35 1098.83 1035.19 1097.64 1038.06C1096.47 1040.91 1094.63 1043.62 1092.11 1046.18L1090.85 1050.13ZM1110.35 1077.09L1093.73 1090.4L1093.31 1080.92L1105.77 1070.94C1108.11 1069.06 1109.78 1067.06 1110.79 1064.92C1111.82 1062.76 1112.2 1060.58 1111.94 1058.37C1111.66 1056.14 1110.74 1053.97 1109.18 1051.88C1107.61 1049.77 1105.88 1048.23 1104 1047.28C1102.12 1046.33 1100.08 1046.07 1097.88 1046.5C1095.69 1046.92 1093.34 1048.13 1090.85 1050.13L1080.38 1058.52L1075.94 1052.39L1090.26 1040.91L1093.46 1041.85C1096.3 1039.95 1099.14 1038.92 1101.99 1038.77C1104.81 1038.59 1107.47 1039.13 1109.95 1040.39C1112.45 1041.64 1114.62 1043.49 1116.44 1045.94C1119.08 1049.5 1120.55 1053.11 1120.86 1056.79C1121.16 1060.42 1120.42 1063.97 1118.63 1067.45C1116.82 1070.91 1114.06 1074.12 1110.35 1077.09Z" fill="black"/>
<path d="M1139.83 952.377L1191.85 1006.4L1185.56 1012.95L1133.54 958.923L1139.83 952.377Z" fill="black"/>
<path d="M1199.85 963.506L1198.98 962.798C1196.02 960.397 1193.61 957.727 1191.75 954.79C1189.86 951.832 1188.61 948.761 1187.99 945.576C1187.35 942.371 1187.39 939.164 1188.14 935.954C1188.86 932.723 1190.32 929.637 1192.53 926.696C1194.76 923.729 1197.29 921.492 1200.13 919.985C1202.97 918.432 1205.96 917.592 1209.1 917.466C1212.24 917.293 1215.42 917.8 1218.64 918.988C1221.83 920.156 1224.9 921.94 1227.86 924.341L1228.73 925.049C1231.69 927.451 1234.1 930.12 1235.96 933.057C1237.82 935.995 1239.06 939.079 1239.69 942.31C1240.31 945.495 1240.26 948.702 1239.54 951.933C1238.82 955.117 1237.34 958.192 1235.11 961.16C1232.88 964.127 1230.36 966.374 1227.55 967.901C1224.71 969.408 1221.71 970.247 1218.57 970.42C1215.43 970.547 1212.26 970.027 1209.07 968.859C1205.88 967.692 1202.8 965.907 1199.85 963.506ZM1204.4 955.575L1205.27 956.283C1207.32 957.946 1209.44 959.268 1211.63 960.252C1213.79 961.214 1215.94 961.765 1218.07 961.905C1220.23 962.019 1222.27 961.649 1224.22 960.796C1226.13 959.923 1227.84 958.484 1229.35 956.48C1230.84 954.502 1231.74 952.453 1232.07 950.333C1232.4 948.167 1232.24 946.025 1231.59 943.907C1230.95 941.789 1229.91 939.754 1228.49 937.802C1227.06 935.804 1225.32 933.974 1223.28 932.311L1222.4 931.603C1220.38 929.961 1218.28 928.672 1216.1 927.735C1213.9 926.752 1211.73 926.204 1209.58 926.09C1207.42 925.93 1205.37 926.276 1203.43 927.129C1201.51 927.956 1199.79 929.371 1198.29 931.375C1196.8 933.354 1195.9 935.426 1195.57 937.592C1195.27 939.733 1195.44 941.885 1196.09 944.049C1196.74 946.167 1197.79 948.212 1199.23 950.185C1200.66 952.136 1202.38 953.933 1204.4 955.575Z" fill="black"/>
<path d="M1259.02 830.348L1262.83 823.081L1307.79 848.61C1311.84 850.908 1314.86 853.705 1316.84 857.001C1318.83 860.297 1319.77 863.862 1319.67 867.697C1319.61 871.519 1318.57 875.377 1316.53 879.27C1315.68 880.884 1314.43 882.643 1312.77 884.545C1311.16 886.435 1309.21 888.095 1306.92 889.525C1304.67 890.942 1302.18 891.795 1299.46 892.083L1296.99 885.235C1300.34 884.592 1303.02 883.461 1305.05 881.841C1307.08 880.193 1308.65 878.316 1309.76 876.211C1311.09 873.673 1311.77 871.216 1311.8 868.84C1311.83 866.465 1311.19 864.25 1309.88 862.196C1308.61 860.129 1306.65 858.34 1303.99 856.83L1268.74 836.821L1259.02 830.348ZM1265.63 875.904L1264.74 875.398C1261.23 873.405 1258.26 871.179 1255.84 868.72C1253.4 866.215 1251.57 863.583 1250.33 860.824C1249.11 858.036 1248.55 855.19 1248.64 852.285C1248.7 849.364 1249.47 846.476 1250.97 843.621C1252.51 840.679 1254.36 838.402 1256.53 836.789C1258.68 835.131 1261.12 834.085 1263.85 833.649C1266.56 833.169 1269.5 833.245 1272.65 833.878C1275.81 834.51 1279.18 835.618 1282.76 837.201L1286.66 839.419C1289.87 841.648 1292.57 843.988 1294.78 846.437C1297 848.858 1298.65 851.386 1299.73 854.02C1300.83 856.625 1301.3 859.327 1301.16 862.126C1300.99 864.909 1300.12 867.785 1298.57 870.756C1297.1 873.553 1295.19 875.761 1292.84 877.38C1290.5 878.971 1287.86 879.979 1284.92 880.404C1281.98 880.83 1278.87 880.672 1275.58 879.93C1272.29 879.143 1268.97 877.801 1265.63 875.904ZM1268.93 867.396L1269.82 867.902C1272.11 869.204 1274.38 870.195 1276.63 870.874C1278.9 871.525 1281.06 871.794 1283.1 871.682C1285.16 871.54 1287.03 870.94 1288.72 869.881C1290.39 868.806 1291.79 867.187 1292.92 865.024C1294.31 862.371 1294.9 859.866 1294.71 857.509C1294.51 855.152 1293.77 852.955 1292.48 850.917C1291.22 848.85 1289.67 846.926 1287.85 845.144L1277.62 839.334C1275.89 838.767 1274.14 838.406 1272.35 838.249C1270.54 838.048 1268.8 838.145 1267.13 838.54C1265.44 838.891 1263.86 839.623 1262.4 840.736C1260.93 841.85 1259.67 843.416 1258.61 845.435C1257.46 847.627 1256.93 849.773 1257 851.873C1257.07 853.928 1257.61 855.903 1258.64 857.796C1259.65 859.644 1261.05 861.392 1262.83 863.04C1264.6 864.642 1266.63 866.094 1268.93 867.396Z" fill="black"/>
<line x1="1252.81" y1="699.173" x2="1445.81" y2="785.173" stroke="black" stroke-width="4"/>
<line x1="1.2263" y1="785.156" x2="206.226" y2="699.156" stroke="black" stroke-width="4"/>
</svg>
