<svg version="1.2" xmlns="http://www.w3.org/2000/svg" viewBox="0 0 48 48" width="48" height="48">
	<title>icons8-spotify(1)-svg</title>
	<style>
		.s0 { fill: #8bdd8b } 
	</style>
	<g id="surface14493124">
		<path id="Layer" fill-rule="evenodd" class="s0" d="m44 24c0 11-9 20-20 20-11 0-20-9-20-20 0-11 9-20 20-20 11 0 20 9 20 20zm-36 0c0 8.9 7.1 16 16 16 8.9 0 16-7.1 16-16 0-8.9-7.1-16-16-16-8.9 0-16 7.1-16 16zm28.4-4.6c0.5 0.4 1.1 0.9 1.1 1.7-0.2 1.1-0.9 1.7-1.9 1.7-0.4 0-0.5-0.1-1-0.3-3.5-1.9-8.4-3.1-13.2-3.1-2.4 0-5 0.4-7.2 0.9-0.3 0-0.5 0.1-1 0.1-1.1 0.2-1.7-0.6-1.7-1.7 0-1 0.5-1.5 1.2-1.7q4.1-1 8.7-1c5.3 0 10.8 1.2 15 3.4zm-2.4 6c0.6 0.4 0.9 0.9 0.9 1.4-0.2 0.8-0.7 1.5-1.5 1.5-0.4 0-0.7-0.2-1.1-0.3-2.9-1.9-7-2.9-11.4-2.9-2.3 0-4.3 0.3-5.8 0.6-0.4 0.2-0.6 0.2-0.9 0.2-0.9 0-1.4-0.7-1.4-1.3 0-0.9 0.4-1.2 1.2-1.6 2.1-0.5 4.1-1 7-1 4.8 0 9.3 1.2 13 3.4zm-1.8 5.3c0.3 0.4 0.6 0.6 0.6 1.2-0.3 0.9-0.8 1.2-1.3 1.2-0.4 0-0.5-0.1-0.9-0.3-2.5-1.5-5.8-2.4-9.2-2.4-1.9 0-4 0.4-5.7 0.7-0.3 0-0.6 0.2-0.8 0.2-0.7 0-1.2-0.5-1.2-1.2 0-0.7 0.3-1.2 1-1.2 2.2-0.5 4.5-0.9 6.9-0.9 3.9 0 7.5 1 10.6 2.8z"/>
	</g>
</svg>