<svg version="1.2" xmlns="http://www.w3.org/2000/svg" viewBox="0 0 100 100" width="100" height="100">
	<title>icons8-youtube-logo-svg</title>
	<style>
		.s0 { fill: #ffffff } 
	</style>
	<g id="surface27657016">
		<path id="Layer" fill-rule="evenodd" class="s0" d="m30 10l4 12 4-12h4l-6 18v12h-4v-12l-6-18zm22.5 9.4c1.2 1.2 1.5 2.8 1.5 4.6v10c0 2-0.3 3.4-1.5 4.5-1.2 1.1-2.4 1.5-4.5 1.5-2 0-3.2-0.4-4.5-1.5-1.2-1.2-1.5-2.5-1.5-4.5v-10c-0.1-2.7 0.3-3.5 1.5-4.6 1.3-1.1 2.4-1.4 4.5-1.4 1.9 0 3.2 0.3 4.5 1.4zm9.5-1.4v16c0 1.9 1.6 2 2 2 0.4 0 2-0.6 2-2v-16h4v22h-4v-2c-0.9 1-2 2-4 2-2 0-4-2.1-4-4v-18zm-16 6v10c0 2 1.4 2 2 2 0.6 0 2-0.1 2-2v-10c0-2-1.4-2-2-2-1.1 0-2 0.4-2 2zm35.2 20c1.4 0 2.8 0.2 4.2 0.7q1.6 0.5 3 1.5c1.1 0.8 2 1.7 2.7 2.8q0.7 1.2 1.2 2.5c0.5 1.4 0.7 2.9 0.7 4.3 0 6.9 0.1 13.7 0 20.5 0 1.5-0.3 3-0.8 4.3q-0.4 1.3-1.2 2.5c-0.7 1.1-1.6 2-2.7 2.8q-1.4 0.9-2.9 1.4c-1.3 0.5-2.7 0.7-4.1 0.7-20.2 0.3-40.4 0.4-60.6 0q-1.9 0-3.6-0.6-1.2-0.4-2.3-1.1-0.9-0.6-1.7-1.2c-1.7-1.6-2.9-3.8-3.6-6.1q-0.5-1.8-0.5-3.7-0.2-9.8 0-19.6c0-1.5 0.3-3 0.8-4.3q0.4-1.3 1.2-2.5c0.7-1.1 1.6-2 2.7-2.8q1.4-0.9 2.9-1.4c1.3-0.5 2.7-0.7 4.1-0.7 10-0.2 20.1-0.2 30.2-0.2 10.1 0.1 20.2 0.2 30.3 0.2zm-60.2 4q-1.3 0-2.5 0.3c-1.3 0.3-2.5 0.9-3.4 1.9q-0.5 0.5-0.9 1.1-0.5 0.8-0.8 1.7c-0.3 0.9-0.4 1.9-0.4 2.9 0 6.4-0.1 12.9 0 19.4q0 1.3 0.4 2.6c0.4 1.6 1.2 3.1 2.4 4.2q0.5 0.4 1.1 0.8 0.7 0.4 1.5 0.7 1.2 0.4 2.5 0.4c20.1 0.1 40.2 0.3 60.4 0q1.2 0 2.3-0.3c1.3-0.3 2.4-1 3.3-1.9q0.5-0.4 0.8-1 0.5-0.8 0.8-1.7c0.3-0.9 0.5-1.9 0.5-2.8q0.2-10.3 0-20.5c0-1-0.2-2-0.5-2.9q-0.3-0.9-0.8-1.7-0.3-0.6-0.8-1c-0.9-0.9-2-1.6-3.3-1.9q-1.1-0.3-2.3-0.3-7.6-0.1-15.1-0.1c-15.1-0.1-30.1 0.1-45.2 0.1zm13 4v4h-4v24h-4v-24h-4v-4zm22 0v8c0.5-0.7 1.1-1.3 1.8-1.6q1-0.5 2-0.5c1.2 0 2.3 0.4 3 1.3 0.7 0.9 1.2 2.1 1.2 3.8v12c0 1.5-0.5 2.4-1.2 3.2-0.6 0.8-1.6 1.8-2.8 1.8-2.1 0-3.2-1.1-4-2v2h-4v-28zm-16 6v16c0 0.5 0.5 2 2 2 1.6 0 1.6-1.5 2-2v-16h4v22h-4v-2c-0.7 0.9-1.1 1.1-2 1.6-0.8 0.4-1.6 0.4-2.4 0.4-1 0-2.1-0.9-2.6-1.5-0.5-0.6-1-1.2-1-2.5v-18zm36.6 1.5c1.1 1 1.4 2.3 1.4 4.3v6.2h-8v3.1c0 1.1 0.1 1.8 0.4 2.2 0.3 0.5 0.9 0.7 1.6 0.7 0.8 0 1.3-0.2 1.6-0.5 0.3-0.4 0.4-1.3 0.4-2.5v-1h4v1.2c0 2.2-0.2 3.8-1.2 4.9-1.1 1.1-2.7 1.6-4.7 1.6q-2.9 0-4.5-1.7-1.6-1.8-1.6-4.8v-9.4c0-1.8 0.6-3.2 1.8-4.4 0.9-0.9 2.7-1.4 4.6-1.4 1.9 0 3.2 0.4 4.2 1.5zm-20.6 3.5v12c0 0.6 0.9 1 2 1 1.1 0 2-0.9 2-2v-10c0-2-0.9-3-2-3-1.1 0-2 1-2 2zm14 1v2h4v-2c0-1.2-0.9-2-2-2-1.1 0-2 0.9-2 2z"/>
	</g>
</svg>